<?xml version="1.0" encoding="utf-8"?>
<svg xmlns="http://www.w3.org/2000/svg" xmlns:xlink="http://www.w3.org/1999/xlink" xml:space="preserve" width="924" height="924" viewBox="0 0 924 924"><g fill="#ffffff">
<g transform="translate(280,56) scale(4.8066666666667)"><rect width="6" height="6"/></g>
<g transform="translate(308,56) scale(4.8066666666667)"><rect width="6" height="6"/></g>
<g transform="translate(336,56) scale(4.8066666666667)"><rect width="6" height="6"/></g>
<g transform="translate(364,56) scale(4.8066666666667)"><rect width="6" height="6"/></g>
<g transform="translate(392,56) scale(4.8066666666667)"><rect width="6" height="6"/></g>
<g transform="translate(448,56) scale(4.8066666666667)"><rect width="6" height="6"/></g>
<g transform="translate(532,56) scale(4.8066666666667)"><rect width="6" height="6"/></g>
<g transform="translate(560,56) scale(4.8066666666667)"><rect width="6" height="6"/></g>
<g transform="translate(616,56) scale(4.8066666666667)"><rect width="6" height="6"/></g>
<g transform="translate(308,84) scale(4.8066666666667)"><rect width="6" height="6"/></g>
<g transform="translate(336,84) scale(4.8066666666667)"><rect width="6" height="6"/></g>
<g transform="translate(392,84) scale(4.8066666666667)"><rect width="6" height="6"/></g>
<g transform="translate(476,84) scale(4.8066666666667)"><rect width="6" height="6"/></g>
<g transform="translate(504,84) scale(4.8066666666667)"><rect width="6" height="6"/></g>
<g transform="translate(532,84) scale(4.8066666666667)"><rect width="6" height="6"/></g>
<g transform="translate(588,84) scale(4.8066666666667)"><rect width="6" height="6"/></g>
<g transform="translate(308,112) scale(4.8066666666667)"><rect width="6" height="6"/></g>
<g transform="translate(420,112) scale(4.8066666666667)"><rect width="6" height="6"/></g>
<g transform="translate(448,112) scale(4.8066666666667)"><rect width="6" height="6"/></g>
<g transform="translate(560,112) scale(4.8066666666667)"><rect width="6" height="6"/></g>
<g transform="translate(588,112) scale(4.8066666666667)"><rect width="6" height="6"/></g>
<g transform="translate(616,112) scale(4.8066666666667)"><rect width="6" height="6"/></g>
<g transform="translate(336,140) scale(4.8066666666667)"><rect width="6" height="6"/></g>
<g transform="translate(392,140) scale(4.8066666666667)"><rect width="6" height="6"/></g>
<g transform="translate(448,140) scale(4.8066666666667)"><rect width="6" height="6"/></g>
<g transform="translate(532,140) scale(4.8066666666667)"><rect width="6" height="6"/></g>
<g transform="translate(588,140) scale(4.8066666666667)"><rect width="6" height="6"/></g>
<g transform="translate(280,168) scale(4.8066666666667)"><rect width="6" height="6"/></g>
<g transform="translate(336,168) scale(4.8066666666667)"><rect width="6" height="6"/></g>
<g transform="translate(392,168) scale(4.8066666666667)"><rect width="6" height="6"/></g>
<g transform="translate(476,168) scale(4.8066666666667)"><rect width="6" height="6"/></g>
<g transform="translate(560,168) scale(4.8066666666667)"><rect width="6" height="6"/></g>
<g transform="translate(588,168) scale(4.8066666666667)"><rect width="6" height="6"/></g>
<g transform="translate(616,168) scale(4.8066666666667)"><rect width="6" height="6"/></g>
<g transform="translate(280,196) scale(4.8066666666667)"><rect width="6" height="6"/></g>
<g transform="translate(336,196) scale(4.8066666666667)"><rect width="6" height="6"/></g>
<g transform="translate(448,196) scale(4.8066666666667)"><rect width="6" height="6"/></g>
<g transform="translate(476,196) scale(4.8066666666667)"><rect width="6" height="6"/></g>
<g transform="translate(560,196) scale(4.8066666666667)"><rect width="6" height="6"/></g>
<g transform="translate(616,196) scale(4.8066666666667)"><rect width="6" height="6"/></g>
<g transform="translate(280,224) scale(4.8066666666667)"><rect width="6" height="6"/></g>
<g transform="translate(336,224) scale(4.8066666666667)"><rect width="6" height="6"/></g>
<g transform="translate(392,224) scale(4.8066666666667)"><rect width="6" height="6"/></g>
<g transform="translate(448,224) scale(4.8066666666667)"><rect width="6" height="6"/></g>
<g transform="translate(504,224) scale(4.8066666666667)"><rect width="6" height="6"/></g>
<g transform="translate(560,224) scale(4.8066666666667)"><rect width="6" height="6"/></g>
<g transform="translate(616,224) scale(4.8066666666667)"><rect width="6" height="6"/></g>
<g transform="translate(308,252) scale(4.8066666666667)"><rect width="6" height="6"/></g>
<g transform="translate(364,252) scale(4.8066666666667)"><rect width="6" height="6"/></g>
<g transform="translate(392,252) scale(4.8066666666667)"><rect width="6" height="6"/></g>
<g transform="translate(420,252) scale(4.8066666666667)"><rect width="6" height="6"/></g>
<g transform="translate(84,280) scale(4.8066666666667)"><rect width="6" height="6"/></g>
<g transform="translate(112,280) scale(4.8066666666667)"><rect width="6" height="6"/></g>
<g transform="translate(140,280) scale(4.8066666666667)"><rect width="6" height="6"/></g>
<g transform="translate(168,280) scale(4.8066666666667)"><rect width="6" height="6"/></g>
<g transform="translate(196,280) scale(4.8066666666667)"><rect width="6" height="6"/></g>
<g transform="translate(224,280) scale(4.8066666666667)"><rect width="6" height="6"/></g>
<g transform="translate(252,280) scale(4.8066666666667)"><rect width="6" height="6"/></g>
<g transform="translate(308,280) scale(4.8066666666667)"><rect width="6" height="6"/></g>
<g transform="translate(336,280) scale(4.8066666666667)"><rect width="6" height="6"/></g>
<g transform="translate(476,280) scale(4.8066666666667)"><rect width="6" height="6"/></g>
<g transform="translate(504,280) scale(4.8066666666667)"><rect width="6" height="6"/></g>
<g transform="translate(560,280) scale(4.8066666666667)"><rect width="6" height="6"/></g>
<g transform="translate(588,280) scale(4.8066666666667)"><rect width="6" height="6"/></g>
<g transform="translate(700,280) scale(4.8066666666667)"><rect width="6" height="6"/></g>
<g transform="translate(728,280) scale(4.8066666666667)"><rect width="6" height="6"/></g>
<g transform="translate(840,280) scale(4.8066666666667)"><rect width="6" height="6"/></g>
<g transform="translate(56,308) scale(4.8066666666667)"><rect width="6" height="6"/></g>
<g transform="translate(84,308) scale(4.8066666666667)"><rect width="6" height="6"/></g>
<g transform="translate(280,308) scale(4.8066666666667)"><rect width="6" height="6"/></g>
<g transform="translate(308,308) scale(4.8066666666667)"><rect width="6" height="6"/></g>
<g transform="translate(364,308) scale(4.8066666666667)"><rect width="6" height="6"/></g>
<g transform="translate(448,308) scale(4.8066666666667)"><rect width="6" height="6"/></g>
<g transform="translate(532,308) scale(4.8066666666667)"><rect width="6" height="6"/></g>
<g transform="translate(644,308) scale(4.8066666666667)"><rect width="6" height="6"/></g>
<g transform="translate(672,308) scale(4.8066666666667)"><rect width="6" height="6"/></g>
<g transform="translate(700,308) scale(4.8066666666667)"><rect width="6" height="6"/></g>
<g transform="translate(728,308) scale(4.8066666666667)"><rect width="6" height="6"/></g>
<g transform="translate(756,308) scale(4.8066666666667)"><rect width="6" height="6"/></g>
<g transform="translate(784,308) scale(4.8066666666667)"><rect width="6" height="6"/></g>
<g transform="translate(840,308) scale(4.8066666666667)"><rect width="6" height="6"/></g>
<g transform="translate(56,336) scale(4.8066666666667)"><rect width="6" height="6"/></g>
<g transform="translate(84,336) scale(4.8066666666667)"><rect width="6" height="6"/></g>
<g transform="translate(112,336) scale(4.8066666666667)"><rect width="6" height="6"/></g>
<g transform="translate(168,336) scale(4.8066666666667)"><rect width="6" height="6"/></g>
<g transform="translate(224,336) scale(4.8066666666667)"><rect width="6" height="6"/></g>
<g transform="translate(280,336) scale(4.8066666666667)"><rect width="6" height="6"/></g>
<g transform="translate(336,336) scale(4.8066666666667)"><rect width="6" height="6"/></g>
<g transform="translate(364,336) scale(4.8066666666667)"><rect width="6" height="6"/></g>
<g transform="translate(420,336) scale(4.8066666666667)"><rect width="6" height="6"/></g>
<g transform="translate(448,336) scale(4.8066666666667)"><rect width="6" height="6"/></g>
<g transform="translate(504,336) scale(4.8066666666667)"><rect width="6" height="6"/></g>
<g transform="translate(532,336) scale(4.8066666666667)"><rect width="6" height="6"/></g>
<g transform="translate(560,336) scale(4.8066666666667)"><rect width="6" height="6"/></g>
<g transform="translate(644,336) scale(4.8066666666667)"><rect width="6" height="6"/></g>
<g transform="translate(672,336) scale(4.8066666666667)"><rect width="6" height="6"/></g>
<g transform="translate(728,336) scale(4.8066666666667)"><rect width="6" height="6"/></g>
<g transform="translate(756,336) scale(4.8066666666667)"><rect width="6" height="6"/></g>
<g transform="translate(784,336) scale(4.8066666666667)"><rect width="6" height="6"/></g>
<g transform="translate(56,364) scale(4.8066666666667)"><rect width="6" height="6"/></g>
<g transform="translate(84,364) scale(4.8066666666667)"><rect width="6" height="6"/></g>
<g transform="translate(112,364) scale(4.8066666666667)"><rect width="6" height="6"/></g>
<g transform="translate(168,364) scale(4.8066666666667)"><rect width="6" height="6"/></g>
<g transform="translate(280,364) scale(4.8066666666667)"><rect width="6" height="6"/></g>
<g transform="translate(308,364) scale(4.8066666666667)"><rect width="6" height="6"/></g>
<g transform="translate(336,364) scale(4.8066666666667)"><rect width="6" height="6"/></g>
<g transform="translate(364,364) scale(4.8066666666667)"><rect width="6" height="6"/></g>
<g transform="translate(392,364) scale(4.8066666666667)"><rect width="6" height="6"/></g>
<g transform="translate(420,364) scale(4.8066666666667)"><rect width="6" height="6"/></g>
<g transform="translate(448,364) scale(4.8066666666667)"><rect width="6" height="6"/></g>
<g transform="translate(504,364) scale(4.8066666666667)"><rect width="6" height="6"/></g>
<g transform="translate(616,364) scale(4.8066666666667)"><rect width="6" height="6"/></g>
<g transform="translate(644,364) scale(4.8066666666667)"><rect width="6" height="6"/></g>
<g transform="translate(672,364) scale(4.8066666666667)"><rect width="6" height="6"/></g>
<g transform="translate(700,364) scale(4.8066666666667)"><rect width="6" height="6"/></g>
<g transform="translate(728,364) scale(4.8066666666667)"><rect width="6" height="6"/></g>
<g transform="translate(756,364) scale(4.8066666666667)"><rect width="6" height="6"/></g>
<g transform="translate(812,364) scale(4.8066666666667)"><rect width="6" height="6"/></g>
<g transform="translate(224,392) scale(4.8066666666667)"><rect width="6" height="6"/></g>
<g transform="translate(280,392) scale(4.8066666666667)"><rect width="6" height="6"/></g>
<g transform="translate(308,392) scale(4.8066666666667)"><rect width="6" height="6"/></g>
<g transform="translate(392,392) scale(4.8066666666667)"><rect width="6" height="6"/></g>
<g transform="translate(448,392) scale(4.8066666666667)"><rect width="6" height="6"/></g>
<g transform="translate(532,392) scale(4.8066666666667)"><rect width="6" height="6"/></g>
<g transform="translate(644,392) scale(4.8066666666667)"><rect width="6" height="6"/></g>
<g transform="translate(700,392) scale(4.8066666666667)"><rect width="6" height="6"/></g>
<g transform="translate(784,392) scale(4.8066666666667)"><rect width="6" height="6"/></g>
<g transform="translate(812,392) scale(4.8066666666667)"><rect width="6" height="6"/></g>
<g transform="translate(840,392) scale(4.8066666666667)"><rect width="6" height="6"/></g>
<g transform="translate(84,420) scale(4.8066666666667)"><rect width="6" height="6"/></g>
<g transform="translate(112,420) scale(4.8066666666667)"><rect width="6" height="6"/></g>
<g transform="translate(140,420) scale(4.8066666666667)"><rect width="6" height="6"/></g>
<g transform="translate(196,420) scale(4.8066666666667)"><rect width="6" height="6"/></g>
<g transform="translate(280,420) scale(4.8066666666667)"><rect width="6" height="6"/></g>
<g transform="translate(308,420) scale(4.8066666666667)"><rect width="6" height="6"/></g>
<g transform="translate(420,420) scale(4.8066666666667)"><rect width="6" height="6"/></g>
<g transform="translate(448,420) scale(4.8066666666667)"><rect width="6" height="6"/></g>
<g transform="translate(476,420) scale(4.8066666666667)"><rect width="6" height="6"/></g>
<g transform="translate(532,420) scale(4.8066666666667)"><rect width="6" height="6"/></g>
<g transform="translate(588,420) scale(4.8066666666667)"><rect width="6" height="6"/></g>
<g transform="translate(616,420) scale(4.8066666666667)"><rect width="6" height="6"/></g>
<g transform="translate(644,420) scale(4.8066666666667)"><rect width="6" height="6"/></g>
<g transform="translate(672,420) scale(4.8066666666667)"><rect width="6" height="6"/></g>
<g transform="translate(728,420) scale(4.8066666666667)"><rect width="6" height="6"/></g>
<g transform="translate(756,420) scale(4.8066666666667)"><rect width="6" height="6"/></g>
<g transform="translate(812,420) scale(4.8066666666667)"><rect width="6" height="6"/></g>
<g transform="translate(840,420) scale(4.8066666666667)"><rect width="6" height="6"/></g>
<g transform="translate(196,448) scale(4.8066666666667)"><rect width="6" height="6"/></g>
<g transform="translate(224,448) scale(4.8066666666667)"><rect width="6" height="6"/></g>
<g transform="translate(252,448) scale(4.8066666666667)"><rect width="6" height="6"/></g>
<g transform="translate(280,448) scale(4.8066666666667)"><rect width="6" height="6"/></g>
<g transform="translate(364,448) scale(4.8066666666667)"><rect width="6" height="6"/></g>
<g transform="translate(420,448) scale(4.8066666666667)"><rect width="6" height="6"/></g>
<g transform="translate(448,448) scale(4.8066666666667)"><rect width="6" height="6"/></g>
<g transform="translate(476,448) scale(4.8066666666667)"><rect width="6" height="6"/></g>
<g transform="translate(532,448) scale(4.8066666666667)"><rect width="6" height="6"/></g>
<g transform="translate(644,448) scale(4.8066666666667)"><rect width="6" height="6"/></g>
<g transform="translate(700,448) scale(4.8066666666667)"><rect width="6" height="6"/></g>
<g transform="translate(812,448) scale(4.8066666666667)"><rect width="6" height="6"/></g>
<g transform="translate(56,476) scale(4.8066666666667)"><rect width="6" height="6"/></g>
<g transform="translate(84,476) scale(4.8066666666667)"><rect width="6" height="6"/></g>
<g transform="translate(140,476) scale(4.8066666666667)"><rect width="6" height="6"/></g>
<g transform="translate(196,476) scale(4.8066666666667)"><rect width="6" height="6"/></g>
<g transform="translate(252,476) scale(4.8066666666667)"><rect width="6" height="6"/></g>
<g transform="translate(280,476) scale(4.8066666666667)"><rect width="6" height="6"/></g>
<g transform="translate(336,476) scale(4.8066666666667)"><rect width="6" height="6"/></g>
<g transform="translate(364,476) scale(4.8066666666667)"><rect width="6" height="6"/></g>
<g transform="translate(448,476) scale(4.8066666666667)"><rect width="6" height="6"/></g>
<g transform="translate(476,476) scale(4.8066666666667)"><rect width="6" height="6"/></g>
<g transform="translate(532,476) scale(4.8066666666667)"><rect width="6" height="6"/></g>
<g transform="translate(560,476) scale(4.8066666666667)"><rect width="6" height="6"/></g>
<g transform="translate(616,476) scale(4.8066666666667)"><rect width="6" height="6"/></g>
<g transform="translate(728,476) scale(4.8066666666667)"><rect width="6" height="6"/></g>
<g transform="translate(756,476) scale(4.8066666666667)"><rect width="6" height="6"/></g>
<g transform="translate(56,504) scale(4.8066666666667)"><rect width="6" height="6"/></g>
<g transform="translate(168,504) scale(4.8066666666667)"><rect width="6" height="6"/></g>
<g transform="translate(224,504) scale(4.8066666666667)"><rect width="6" height="6"/></g>
<g transform="translate(252,504) scale(4.8066666666667)"><rect width="6" height="6"/></g>
<g transform="translate(280,504) scale(4.8066666666667)"><rect width="6" height="6"/></g>
<g transform="translate(308,504) scale(4.8066666666667)"><rect width="6" height="6"/></g>
<g transform="translate(336,504) scale(4.8066666666667)"><rect width="6" height="6"/></g>
<g transform="translate(448,504) scale(4.8066666666667)"><rect width="6" height="6"/></g>
<g transform="translate(476,504) scale(4.8066666666667)"><rect width="6" height="6"/></g>
<g transform="translate(504,504) scale(4.8066666666667)"><rect width="6" height="6"/></g>
<g transform="translate(588,504) scale(4.8066666666667)"><rect width="6" height="6"/></g>
<g transform="translate(616,504) scale(4.8066666666667)"><rect width="6" height="6"/></g>
<g transform="translate(700,504) scale(4.8066666666667)"><rect width="6" height="6"/></g>
<g transform="translate(756,504) scale(4.8066666666667)"><rect width="6" height="6"/></g>
<g transform="translate(784,504) scale(4.8066666666667)"><rect width="6" height="6"/></g>
<g transform="translate(56,532) scale(4.8066666666667)"><rect width="6" height="6"/></g>
<g transform="translate(112,532) scale(4.8066666666667)"><rect width="6" height="6"/></g>
<g transform="translate(140,532) scale(4.8066666666667)"><rect width="6" height="6"/></g>
<g transform="translate(196,532) scale(4.8066666666667)"><rect width="6" height="6"/></g>
<g transform="translate(308,532) scale(4.8066666666667)"><rect width="6" height="6"/></g>
<g transform="translate(336,532) scale(4.8066666666667)"><rect width="6" height="6"/></g>
<g transform="translate(364,532) scale(4.8066666666667)"><rect width="6" height="6"/></g>
<g transform="translate(392,532) scale(4.8066666666667)"><rect width="6" height="6"/></g>
<g transform="translate(420,532) scale(4.8066666666667)"><rect width="6" height="6"/></g>
<g transform="translate(448,532) scale(4.8066666666667)"><rect width="6" height="6"/></g>
<g transform="translate(476,532) scale(4.8066666666667)"><rect width="6" height="6"/></g>
<g transform="translate(560,532) scale(4.8066666666667)"><rect width="6" height="6"/></g>
<g transform="translate(588,532) scale(4.8066666666667)"><rect width="6" height="6"/></g>
<g transform="translate(616,532) scale(4.8066666666667)"><rect width="6" height="6"/></g>
<g transform="translate(672,532) scale(4.8066666666667)"><rect width="6" height="6"/></g>
<g transform="translate(700,532) scale(4.8066666666667)"><rect width="6" height="6"/></g>
<g transform="translate(728,532) scale(4.8066666666667)"><rect width="6" height="6"/></g>
<g transform="translate(756,532) scale(4.8066666666667)"><rect width="6" height="6"/></g>
<g transform="translate(812,532) scale(4.8066666666667)"><rect width="6" height="6"/></g>
<g transform="translate(840,532) scale(4.8066666666667)"><rect width="6" height="6"/></g>
<g transform="translate(56,560) scale(4.8066666666667)"><rect width="6" height="6"/></g>
<g transform="translate(140,560) scale(4.8066666666667)"><rect width="6" height="6"/></g>
<g transform="translate(168,560) scale(4.8066666666667)"><rect width="6" height="6"/></g>
<g transform="translate(224,560) scale(4.8066666666667)"><rect width="6" height="6"/></g>
<g transform="translate(280,560) scale(4.8066666666667)"><rect width="6" height="6"/></g>
<g transform="translate(308,560) scale(4.8066666666667)"><rect width="6" height="6"/></g>
<g transform="translate(336,560) scale(4.8066666666667)"><rect width="6" height="6"/></g>
<g transform="translate(476,560) scale(4.8066666666667)"><rect width="6" height="6"/></g>
<g transform="translate(504,560) scale(4.8066666666667)"><rect width="6" height="6"/></g>
<g transform="translate(616,560) scale(4.8066666666667)"><rect width="6" height="6"/></g>
<g transform="translate(672,560) scale(4.8066666666667)"><rect width="6" height="6"/></g>
<g transform="translate(784,560) scale(4.8066666666667)"><rect width="6" height="6"/></g>
<g transform="translate(56,588) scale(4.8066666666667)"><rect width="6" height="6"/></g>
<g transform="translate(140,588) scale(4.8066666666667)"><rect width="6" height="6"/></g>
<g transform="translate(168,588) scale(4.8066666666667)"><rect width="6" height="6"/></g>
<g transform="translate(280,588) scale(4.8066666666667)"><rect width="6" height="6"/></g>
<g transform="translate(308,588) scale(4.8066666666667)"><rect width="6" height="6"/></g>
<g transform="translate(336,588) scale(4.8066666666667)"><rect width="6" height="6"/></g>
<g transform="translate(392,588) scale(4.8066666666667)"><rect width="6" height="6"/></g>
<g transform="translate(476,588) scale(4.8066666666667)"><rect width="6" height="6"/></g>
<g transform="translate(560,588) scale(4.8066666666667)"><rect width="6" height="6"/></g>
<g transform="translate(672,588) scale(4.8066666666667)"><rect width="6" height="6"/></g>
<g transform="translate(700,588) scale(4.8066666666667)"><rect width="6" height="6"/></g>
<g transform="translate(756,588) scale(4.8066666666667)"><rect width="6" height="6"/></g>
<g transform="translate(812,588) scale(4.8066666666667)"><rect width="6" height="6"/></g>
<g transform="translate(840,588) scale(4.8066666666667)"><rect width="6" height="6"/></g>
<g transform="translate(56,616) scale(4.8066666666667)"><rect width="6" height="6"/></g>
<g transform="translate(112,616) scale(4.8066666666667)"><rect width="6" height="6"/></g>
<g transform="translate(140,616) scale(4.8066666666667)"><rect width="6" height="6"/></g>
<g transform="translate(168,616) scale(4.8066666666667)"><rect width="6" height="6"/></g>
<g transform="translate(196,616) scale(4.8066666666667)"><rect width="6" height="6"/></g>
<g transform="translate(224,616) scale(4.8066666666667)"><rect width="6" height="6"/></g>
<g transform="translate(308,616) scale(4.8066666666667)"><rect width="6" height="6"/></g>
<g transform="translate(336,616) scale(4.8066666666667)"><rect width="6" height="6"/></g>
<g transform="translate(364,616) scale(4.8066666666667)"><rect width="6" height="6"/></g>
<g transform="translate(392,616) scale(4.8066666666667)"><rect width="6" height="6"/></g>
<g transform="translate(420,616) scale(4.8066666666667)"><rect width="6" height="6"/></g>
<g transform="translate(448,616) scale(4.8066666666667)"><rect width="6" height="6"/></g>
<g transform="translate(476,616) scale(4.8066666666667)"><rect width="6" height="6"/></g>
<g transform="translate(532,616) scale(4.8066666666667)"><rect width="6" height="6"/></g>
<g transform="translate(588,616) scale(4.8066666666667)"><rect width="6" height="6"/></g>
<g transform="translate(616,616) scale(4.8066666666667)"><rect width="6" height="6"/></g>
<g transform="translate(644,616) scale(4.8066666666667)"><rect width="6" height="6"/></g>
<g transform="translate(672,616) scale(4.8066666666667)"><rect width="6" height="6"/></g>
<g transform="translate(700,616) scale(4.8066666666667)"><rect width="6" height="6"/></g>
<g transform="translate(728,616) scale(4.8066666666667)"><rect width="6" height="6"/></g>
<g transform="translate(784,616) scale(4.8066666666667)"><rect width="6" height="6"/></g>
<g transform="translate(812,616) scale(4.8066666666667)"><rect width="6" height="6"/></g>
<g transform="translate(840,616) scale(4.8066666666667)"><rect width="6" height="6"/></g>
<g transform="translate(280,644) scale(4.8066666666667)"><rect width="6" height="6"/></g>
<g transform="translate(392,644) scale(4.8066666666667)"><rect width="6" height="6"/></g>
<g transform="translate(420,644) scale(4.8066666666667)"><rect width="6" height="6"/></g>
<g transform="translate(504,644) scale(4.8066666666667)"><rect width="6" height="6"/></g>
<g transform="translate(616,644) scale(4.8066666666667)"><rect width="6" height="6"/></g>
<g transform="translate(728,644) scale(4.8066666666667)"><rect width="6" height="6"/></g>
<g transform="translate(756,644) scale(4.8066666666667)"><rect width="6" height="6"/></g>
<g transform="translate(812,644) scale(4.8066666666667)"><rect width="6" height="6"/></g>
<g transform="translate(840,644) scale(4.8066666666667)"><rect width="6" height="6"/></g>
<g transform="translate(280,672) scale(4.8066666666667)"><rect width="6" height="6"/></g>
<g transform="translate(308,672) scale(4.8066666666667)"><rect width="6" height="6"/></g>
<g transform="translate(336,672) scale(4.8066666666667)"><rect width="6" height="6"/></g>
<g transform="translate(364,672) scale(4.8066666666667)"><rect width="6" height="6"/></g>
<g transform="translate(420,672) scale(4.8066666666667)"><rect width="6" height="6"/></g>
<g transform="translate(476,672) scale(4.8066666666667)"><rect width="6" height="6"/></g>
<g transform="translate(560,672) scale(4.8066666666667)"><rect width="6" height="6"/></g>
<g transform="translate(588,672) scale(4.8066666666667)"><rect width="6" height="6"/></g>
<g transform="translate(616,672) scale(4.8066666666667)"><rect width="6" height="6"/></g>
<g transform="translate(672,672) scale(4.8066666666667)"><rect width="6" height="6"/></g>
<g transform="translate(728,672) scale(4.8066666666667)"><rect width="6" height="6"/></g>
<g transform="translate(280,700) scale(4.8066666666667)"><rect width="6" height="6"/></g>
<g transform="translate(336,700) scale(4.8066666666667)"><rect width="6" height="6"/></g>
<g transform="translate(420,700) scale(4.8066666666667)"><rect width="6" height="6"/></g>
<g transform="translate(504,700) scale(4.8066666666667)"><rect width="6" height="6"/></g>
<g transform="translate(588,700) scale(4.8066666666667)"><rect width="6" height="6"/></g>
<g transform="translate(616,700) scale(4.8066666666667)"><rect width="6" height="6"/></g>
<g transform="translate(728,700) scale(4.8066666666667)"><rect width="6" height="6"/></g>
<g transform="translate(756,700) scale(4.8066666666667)"><rect width="6" height="6"/></g>
<g transform="translate(280,728) scale(4.8066666666667)"><rect width="6" height="6"/></g>
<g transform="translate(308,728) scale(4.8066666666667)"><rect width="6" height="6"/></g>
<g transform="translate(336,728) scale(4.8066666666667)"><rect width="6" height="6"/></g>
<g transform="translate(392,728) scale(4.8066666666667)"><rect width="6" height="6"/></g>
<g transform="translate(420,728) scale(4.8066666666667)"><rect width="6" height="6"/></g>
<g transform="translate(448,728) scale(4.8066666666667)"><rect width="6" height="6"/></g>
<g transform="translate(560,728) scale(4.8066666666667)"><rect width="6" height="6"/></g>
<g transform="translate(616,728) scale(4.8066666666667)"><rect width="6" height="6"/></g>
<g transform="translate(644,728) scale(4.8066666666667)"><rect width="6" height="6"/></g>
<g transform="translate(672,728) scale(4.8066666666667)"><rect width="6" height="6"/></g>
<g transform="translate(700,728) scale(4.8066666666667)"><rect width="6" height="6"/></g>
<g transform="translate(728,728) scale(4.8066666666667)"><rect width="6" height="6"/></g>
<g transform="translate(756,728) scale(4.8066666666667)"><rect width="6" height="6"/></g>
<g transform="translate(784,728) scale(4.8066666666667)"><rect width="6" height="6"/></g>
<g transform="translate(280,756) scale(4.8066666666667)"><rect width="6" height="6"/></g>
<g transform="translate(308,756) scale(4.8066666666667)"><rect width="6" height="6"/></g>
<g transform="translate(336,756) scale(4.8066666666667)"><rect width="6" height="6"/></g>
<g transform="translate(392,756) scale(4.8066666666667)"><rect width="6" height="6"/></g>
<g transform="translate(448,756) scale(4.8066666666667)"><rect width="6" height="6"/></g>
<g transform="translate(476,756) scale(4.8066666666667)"><rect width="6" height="6"/></g>
<g transform="translate(504,756) scale(4.8066666666667)"><rect width="6" height="6"/></g>
<g transform="translate(588,756) scale(4.8066666666667)"><rect width="6" height="6"/></g>
<g transform="translate(616,756) scale(4.8066666666667)"><rect width="6" height="6"/></g>
<g transform="translate(644,756) scale(4.8066666666667)"><rect width="6" height="6"/></g>
<g transform="translate(700,756) scale(4.8066666666667)"><rect width="6" height="6"/></g>
<g transform="translate(280,784) scale(4.8066666666667)"><rect width="6" height="6"/></g>
<g transform="translate(448,784) scale(4.8066666666667)"><rect width="6" height="6"/></g>
<g transform="translate(532,784) scale(4.8066666666667)"><rect width="6" height="6"/></g>
<g transform="translate(560,784) scale(4.8066666666667)"><rect width="6" height="6"/></g>
<g transform="translate(588,784) scale(4.8066666666667)"><rect width="6" height="6"/></g>
<g transform="translate(616,784) scale(4.8066666666667)"><rect width="6" height="6"/></g>
<g transform="translate(644,784) scale(4.8066666666667)"><rect width="6" height="6"/></g>
<g transform="translate(672,784) scale(4.8066666666667)"><rect width="6" height="6"/></g>
<g transform="translate(700,784) scale(4.8066666666667)"><rect width="6" height="6"/></g>
<g transform="translate(728,784) scale(4.8066666666667)"><rect width="6" height="6"/></g>
<g transform="translate(756,784) scale(4.8066666666667)"><rect width="6" height="6"/></g>
<g transform="translate(812,784) scale(4.8066666666667)"><rect width="6" height="6"/></g>
<g transform="translate(280,812) scale(4.8066666666667)"><rect width="6" height="6"/></g>
<g transform="translate(448,812) scale(4.8066666666667)"><rect width="6" height="6"/></g>
<g transform="translate(504,812) scale(4.8066666666667)"><rect width="6" height="6"/></g>
<g transform="translate(560,812) scale(4.8066666666667)"><rect width="6" height="6"/></g>
<g transform="translate(616,812) scale(4.8066666666667)"><rect width="6" height="6"/></g>
<g transform="translate(728,812) scale(4.8066666666667)"><rect width="6" height="6"/></g>
<g transform="translate(756,812) scale(4.8066666666667)"><rect width="6" height="6"/></g>
<g transform="translate(812,812) scale(4.8066666666667)"><rect width="6" height="6"/></g>
<g transform="translate(364,840) scale(4.8066666666667)"><rect width="6" height="6"/></g>
<g transform="translate(392,840) scale(4.8066666666667)"><rect width="6" height="6"/></g>
<g transform="translate(532,840) scale(4.8066666666667)"><rect width="6" height="6"/></g>
<g transform="translate(560,840) scale(4.8066666666667)"><rect width="6" height="6"/></g>
<g transform="translate(588,840) scale(4.8066666666667)"><rect width="6" height="6"/></g>
<g transform="translate(644,840) scale(4.8066666666667)"><rect width="6" height="6"/></g>
<g transform="translate(672,840) scale(4.8066666666667)"><rect width="6" height="6"/></g>
<g transform="translate(728,840) scale(4.8066666666667)"><rect width="6" height="6"/></g>
<g transform="translate(784,840) scale(4.8066666666667)"><rect width="6" height="6"/></g>
<g transform="translate(56,56)"><g transform="scale(14)"><path d="M0,0v14h14V0H0z M12,12H2V2h10V12z"/></g></g>
<g transform="translate(672,56)"><g transform="scale(14)"><path d="M0,0v14h14V0H0z M12,12H2V2h10V12z"/></g></g>
<g transform="translate(56,672)"><g transform="scale(14)"><path d="M0,0v14h14V0H0z M12,12H2V2h10V12z"/></g></g>
<g transform="translate(112,112)"><g transform="scale(14)"><rect width="6" height="6"/></g></g>
<g transform="translate(728,112)"><g transform="scale(14)"><rect width="6" height="6"/></g></g>
<g transform="translate(112,728)"><g transform="scale(14)"><rect width="6" height="6"/></g></g>
</g></svg>
